<?xml version="1.0" standalone="no"?><!DOCTYPE svg PUBLIC "-//W3C//DTD SVG 1.1//EN" "http://www.w3.org/Graphics/SVG/1.1/DTD/svg11.dtd"><svg t="1500025012262" class="icon" style="" viewBox="0 0 1024 1024" version="1.1" xmlns="http://www.w3.org/2000/svg" p-id="4140" xmlns:xlink="http://www.w3.org/1999/xlink" width="64" height="64"><defs><style type="text/css"></style></defs><path d="M3.925333 512c0 15.872 12.8 28.672 28.672 28.672l958.634667 0c15.872 0 28.672-12.8 28.672-28.672s-12.8-28.672-28.672-28.672l-958.634667 0C16.725333 483.328 3.925333 496.298667 3.925333 512z" p-id="4141" fill=""></path><path d="M512 4.096c-15.872 0-28.672 12.8-28.672 28.672l0 958.634667c0 15.872 12.8 28.672 28.672 28.672 15.872 0 28.672-12.8 28.672-28.672l0-958.634667C540.672 16.896 527.872 3.925333 512 4.096z" p-id="4142" fill=""></path></svg>