<?xml version="1.0" standalone="no"?><!DOCTYPE svg PUBLIC "-//W3C//DTD SVG 1.1//EN" "http://www.w3.org/Graphics/SVG/1.1/DTD/svg11.dtd"><svg t="1500865400460" class="icon" style="" viewBox="0 0 1024 1024" version="1.1" xmlns="http://www.w3.org/2000/svg" p-id="22460" xmlns:xlink="http://www.w3.org/1999/xlink" width="64" height="64"><defs><style type="text/css"></style></defs><path d="M558.545455 930.909091H93.090909V86.670846H930.909091V930.909091H558.545455zM930.909091 0H93.090909C41.730408 0 0 41.730408 0 93.090909V930.909091c0 51.360502 41.730408 93.090909 93.090909 93.090909H930.909091c51.360502 0 93.090909-41.730408 93.090909-93.090909V93.090909C1024 41.730408 982.269592 0 930.909091 0z" fill="" p-id="22461"></path><path d="M757.567398 234.332288H430.144201c-25.680251 0-48.15047 19.260188-48.150471 48.150471 0 25.680251 19.260188 48.15047 48.150471 48.15047h327.423197c25.680251 0 48.15047-19.260188 48.15047-48.15047-3.210031-28.890282-22.470219-48.15047-48.15047-48.150471z m0 231.122257H430.144201c-25.680251 0-48.15047 19.260188-48.150471 48.150471 0 25.680251 19.260188 48.15047 48.150471 48.15047h327.423197c25.680251 0 48.15047-19.260188 48.15047-48.15047-3.210031-28.890282-22.470219-48.15047-48.15047-48.150471z m0 234.332289H430.144201c-25.680251 0-48.15047 19.260188-48.150471 48.15047 0 25.680251 19.260188 48.15047 48.150471 48.15047h327.423197c25.680251 0 48.15047-19.260188 48.15047-48.15047-3.210031-28.890282-22.470219-48.15047-48.15047-48.15047zM279.272727 234.332288c-25.680251 0-48.15047 19.260188-48.15047 48.150471 0 25.680251 19.260188 48.15047 48.15047 48.15047 25.680251 0 48.15047-19.260188 48.15047-48.15047s-22.470219-48.15047-48.15047-48.150471z m0 231.122257c-25.680251 0-48.15047 19.260188-48.15047 48.150471 0 25.680251 19.260188 48.15047 48.15047 48.15047 25.680251 0 48.15047-19.260188 48.15047-48.15047s-22.470219-48.15047-48.15047-48.150471z m0 234.332289c-25.680251 0-48.15047 19.260188-48.15047 48.15047 0 25.680251 19.260188 48.15047 48.15047 48.15047 25.680251 0 48.15047-19.260188 48.15047-48.15047s-22.470219-48.15047-48.15047-48.15047z" fill="" p-id="22462"></path></svg>