<?xml version="1.0" standalone="no"?><!DOCTYPE svg PUBLIC "-//W3C//DTD SVG 1.1//EN" "http://www.w3.org/Graphics/SVG/1.1/DTD/svg11.dtd"><svg t="1500604656829" class="icon" style="" viewBox="0 0 1024 1024" version="1.1" xmlns="http://www.w3.org/2000/svg" p-id="15040" xmlns:xlink="http://www.w3.org/1999/xlink" width="64" height="64"><defs><style type="text/css"></style></defs><path d="M204.312477 523.903098l278.118391 0 0 145.941883 60.840093 0L543.27096 523.903098l278.680209 0 0 170.21573 61.863441 0 0-231.052307L543.27096 463.066521 543.27096 348.554464l-60.840093 0 0 114.512057L143.472384 463.066521l0 231.052307 60.840093 0L204.312477 523.903098 204.312477 523.903098zM265.450364 757.000993 84.607353 757.000993c-11.173938 0-20.213172 9.055237-20.213172 20.213367l0 161.711032c0 11.153014 9.043327 20.212344 20.213172 20.212344l180.841988 0c11.151425 0 20.212149-9.05933 20.212149-20.212344L285.66149 777.214361C285.662513 766.05623 276.601789 757.000993 265.450364 757.000993L265.450364 757.000993zM602.420482 757.000993 421.578494 757.000993c-11.173938 0-20.213172 9.055237-20.213172 20.213367l0 161.711032c0 11.153014 9.043327 20.212344 20.213172 20.212344l180.841988 0c11.152448 0 20.213172-9.05933 20.213172-20.212344L622.633654 777.214361C622.633654 766.05623 613.573953 757.000993 602.420482 757.000993L602.420482 757.000993zM937.864788 757.000993 757.0228 757.000993c-11.173938 0-20.213172 9.055237-20.213172 20.213367l0 161.711032c0 11.153014 9.043327 20.212344 20.213172 20.212344l180.841988 0c11.152448 0 20.213172-9.05933 20.213172-20.212344L958.07796 777.214361C958.07796 766.05623 949.018259 757.000993 937.864788 757.000993L937.864788 757.000993zM279.01689 317.67313l465.623398 0c13.397674 0 24.279958-10.869558 24.279958-24.279986l0-206.503191c0-13.421684-10.882284-24.292266-24.279958-24.292266l-465.623398 0c-13.416094 0-24.278934 10.870582-24.278934 24.292266l0 206.503191C254.737956 306.803571 265.600796 317.67313 279.01689 317.67313L279.01689 317.67313zM279.01689 317.67313" p-id="15041" fill="#32ac8e"></path></svg>