<?xml version="1.0" standalone="no"?><!DOCTYPE svg PUBLIC "-//W3C//DTD SVG 1.1//EN" "http://www.w3.org/Graphics/SVG/1.1/DTD/svg11.dtd"><svg t="1500628507172" class="icon" style="" viewBox="0 0 1041 1024" version="1.1" xmlns="http://www.w3.org/2000/svg" p-id="20430" xmlns:xlink="http://www.w3.org/1999/xlink" width="65.0625" height="64"><defs><style type="text/css"></style></defs><path d="M1011.927033 527.547091 963.589119 574.824861 831.191716 443.493743l48.344055-47.279816c14.697747-14.703887 37.816281-16.815991 50.41932-4.212952l87.214341 85.119633C1028.744048 489.711368 1026.6432 512.823761 1011.927033 527.547091L1011.927033 527.547091 1011.927033 527.547091 1011.927033 527.547091 1011.927033 527.547091 1011.927033 527.547091 1011.927033 527.547091zM1011.927033 527.547091" p-id="20431" fill=""></path><path d="M808.093649 465.547015l-224.861304 219.605603L551.698141 719.79665l-60.947094 55.673997c-2.082428 1.064238-6.28924 7.355525-7.337105 12.620435-1.046842 1.067308-1.046842 1.067308-1.046842 2.102894L429.822372 953.052135c-2.082428 5.265934-1.034563 9.480932 2.113127 12.622482 3.15383 3.15997 8.408507 3.15997 12.615319 2.112104l166.006871-51.491745c1.059122-1.046842 1.059122-1.046842 2.112104-1.046842 6.28924-1.046842 10.510378-5.255701 11.556197-6.302543l317.309856-313.113277L808.093649 465.547015 808.093649 465.547015zM513.864464 920.515091l-34.668591-34.669614 22.065552-68.302619 81.97092 80.894402L513.864464 920.515091 513.864464 920.515091zM802.836925 533.848611 554.85811 777.614473c-4.188392 4.195555-12.603039 4.195555-16.804734 0-5.260817-4.200672-5.260817-12.621459 0-16.817014l249.031796-243.764839c4.189416-4.189416 12.603039-4.189416 16.817014 0C808.093649 522.285251 808.093649 529.640776 802.836925 533.848611L802.836925 533.848611zM802.836925 533.848611" p-id="20432" fill=""></path><path d="M625.384373 955.624726l189.780321 0c50.231031 0 90.956571-42.766013 90.956571-95.51847L906.121266 671.935596 625.384373 955.624726 625.384373 955.624726zM625.384373 955.624726" p-id="20433" fill=""></path><path d="M815.164694 55.241139 90.955548 55.241139c-50.236148 0-90.956571 42.764989-90.956571 95.51847l0 709.346647c0 52.752458 40.720424 95.51847 90.956571 95.51847l182.90268 0 632.262014-638.275985L906.120242 150.759609C906.121266 98.005105 865.395726 55.241139 815.164694 55.241139L815.164694 55.241139zM391.362432 767.770268 126.535905 767.770268c-16.210193 0-29.401634-13.177114-29.401634-29.389354 0-16.23373 13.19144-29.437449 29.401634-29.437449l323.011718 0L391.362432 767.770268 391.362432 767.770268zM678.002778 439.449637l0-50.241264L447.896007 644.895753 273.625938 483.514225 148.376329 622.697171c-5.538133 6.204305-13.498432 9.756201-21.827121 9.756201-7.300266 0-14.299681-2.695389-19.71911-7.607258-5.805216-5.211698-9.241478-12.407588-9.652847-20.252253-0.415462-7.845689 2.242064-15.377222 7.478322-21.214161L269.859147 399.846664l174.238346 161.39483 197.306738-219.232097L533.081131 342.009398c-16.20303 0-29.377074-13.19144-29.377074-29.413913 0-16.222473 13.174044-29.407774 29.377074-29.407774L707.404412 283.187711c2.345418 0 4.201695 0.514723 5.003967 0.734734 1.481747 0.201591 3.367701 0.484024 5.470595 1.292436 2.453888 0.968048 4.199649 2.149966 5.350868 2.927679 1.231037 0.654916 2.572592 1.427512 4.02978 2.7793l1.286296 1.385557c0.287549 0.01228 1.174756 1.101077 3.031033 4.034896 0.753153 1.023306 1.818415 2.419096 2.664689 4.384867 0.832971 1.843998 1.175779 3.614317 1.335415 4.471848 0.557702 2.136663 1.102101 4.163833 1.14508 6.686283l0.037862 68.156286L678.002778 439.449637 678.002778 439.449637zM678.002778 439.449637" p-id="20434" fill=""></path></svg>