<?xml version="1.0" standalone="no"?><!DOCTYPE svg PUBLIC "-//W3C//DTD SVG 1.1//EN" "http://www.w3.org/Graphics/SVG/1.1/DTD/svg11.dtd"><svg t="1500886046526" class="icon" style="" viewBox="0 0 1024 1024" version="1.1" xmlns="http://www.w3.org/2000/svg" p-id="6130" xmlns:xlink="http://www.w3.org/1999/xlink" width="200" height="200"><defs><style type="text/css"></style></defs><path d="M512 745.142857c-248.649143 0-443.428571-102.4-443.428571-233.142857 0-130.742857 194.779429-233.142857 443.428571-233.142857s443.428571 102.4 443.428571 233.142857C955.428571 642.742857 760.649143 745.142857 512 745.142857zM512 333.714286C301.385143 333.714286 123.428571 415.341714 123.428571 512S301.385143 690.285714 512 690.285714c210.651429 0 388.571429-81.627429 388.571429-178.285714S722.651429 333.714286 512 333.714286z" p-id="6131" fill="#33CC99"></path><path d="M512 512m-109.714286 0a3 3 0 1 0 219.428571 0 3 3 0 1 0-219.428571 0Z" p-id="6132" fill="#33CC99"></path><path d="M512 649.142857c-75.629714 0-137.142857-61.549714-137.142857-137.142857 0-75.629714 61.513143-137.142857 137.142857-137.142857 75.593143 0 137.142857 61.513143 137.142857 137.142857C649.142857 587.593143 587.593143 649.142857 512 649.142857zM512 429.714286c-45.385143 0-82.285714 36.900571-82.285714 82.285714 0 45.348571 36.900571 82.285714 82.285714 82.285714 45.348571 0 82.285714-36.937143 82.285714-82.285714C594.285714 466.614857 557.348571 429.714286 512 429.714286z" p-id="6133" fill="#33CC99"></path></svg>