<?xml version="1.0" standalone="no"?><!DOCTYPE svg PUBLIC "-//W3C//DTD SVG 1.1//EN" "http://www.w3.org/Graphics/SVG/1.1/DTD/svg11.dtd"><svg t="1500000268641" class="icon" style="" viewBox="0 0 1024 1024" version="1.1" xmlns="http://www.w3.org/2000/svg" p-id="4673" xmlns:xlink="http://www.w3.org/1999/xlink" width="200" height="200"><defs><style type="text/css"></style></defs><path d="M642.647 549.873l189.205 113.52-73.677-257.817-189.18-113.49zM527.483 225.7L599.752 8.899H244.045l72.284 216.8zM645.601 615.757L527.636 238.259h-211.45L148.178 775.89l273.73 239.53 273.731-239.53-47.14-150.84-2.898-9.292zM396.595 324.009h50.606l2.873 9.323-81.393 81.388 27.914-90.711z m-81.802 265.856l163.814-163.81 12.145 39.47L291.85 664.434l22.943-74.568z m-6.973 185.462l212.782-212.793 12.718 41.319-199.307 197.663-26.193-26.19z m114.088 114.078l-19.921-19.921 163.246-161.89 9.057 29.425-152.382 152.386z" fill="#33CC99" p-id="4674"></path></svg>