<?xml version="1.0" standalone="no"?><!DOCTYPE svg PUBLIC "-//W3C//DTD SVG 1.1//EN" "http://www.w3.org/Graphics/SVG/1.1/DTD/svg11.dtd"><svg t="1500089671378" class="icon" style="" viewBox="0 0 1085 1024" version="1.1" xmlns="http://www.w3.org/2000/svg" p-id="5134" xmlns:xlink="http://www.w3.org/1999/xlink" width="211.9140625" height="200"><defs><style type="text/css"></style></defs><path d="M975.570824 849.709176c0 111.706353-1.987765 113.573647-103.905882 113.573647L207.028706 963.282824c-115.471059 0-115.290353 3.011765-115.290353-101.255529L91.557647 199.228235c0-105.261176 0-103.363765 115.471059-103.363765l386.56 0L593.588706 35.117176 203.776 35.117176C59.663059 35.117176 30.117647 54.241882 30.117647 199.047529l0 661.082353C30.117647 1023.819294 59.663059 1024 203.776 1024L874.917647 1024c144.112941 0 162.424471-30.328471 162.424471-175.134118L1037.342118 489.803294l-61.771294 0L975.570824 849.709176z" p-id="5135" fill=""></path><path d="M1032.553412 109.899294l-88.304941-88.304941c-28.852706-28.792471-55.024941-28.792471-83.817412 0L351.262118 529.618824c-0.752941 0.752941-1.445647 1.536-2.108235 2.319059-4.638118 3.704471-8.192 8.854588-9.878588 15.028706l-22.377412 141.703529c-4.276706 15.540706 4.818824 31.563294 20.329412 35.84 3.343059 0.903529 6.686118 1.204706 9.968941 0.963765 2.379294 0.180706 4.818824 0.060235 7.288471-0.391529l158.900706-18.582588c7.198118-1.295059 13.312-5.12 17.588706-10.390588 0.843294-0.662588 1.686588-1.415529 2.469647-2.198588L1032.583529 193.716706C1061.345882 164.954353 1061.345882 138.691765 1032.553412 109.899294M981.112471 160.707765 482.996706 657.92l-95.141647 15.420235c0 0-10.842353 2.529882-15.179294-2.349176-3.373176-3.764706 0.873412-13.191529 0.873412-13.191529l24.937412-87.853176L896.421647 76.107294c6.083765-6.083765 15.902118-6.083765 21.955765 0l62.704941 62.674824C987.166118 144.865882 987.166118 154.684235 981.112471 160.707765" p-id="5136" fill=""></path></svg>