<?xml version="1.0" standalone="no"?><!DOCTYPE svg PUBLIC "-//W3C//DTD SVG 1.1//EN" "http://www.w3.org/Graphics/SVG/1.1/DTD/svg11.dtd"><svg t="1500981253431" class="icon" style="" viewBox="0 0 1024 1024" version="1.1" xmlns="http://www.w3.org/2000/svg" p-id="12597" xmlns:xlink="http://www.w3.org/1999/xlink" width="64" height="64"><defs><style type="text/css"></style></defs><path d="M618.928776 709.535843c-0.019986 0-0.037974-0.036975-0.056961-0.036975C618.872015 709.645768 618.890802 709.663956 618.928776 709.535843zM540.985095 1011.556416l192.535387-192.538185c16.561713-16.559715 16.561713-43.431202 0-59.978924-16.527736-16.56571-43.398424-16.56571-59.960937 0L553.398635 879.185827 553.398635 471.554228c0-23.425036-18.998053-42.402902-42.4059-42.402902-23.441425 0-42.418492 18.996054-42.418492 42.402902L468.574243 879.167839l-120.142323-120.147719c-16.543725-16.558715-43.4342-16.558715-59.981922 0-8.278758 8.279358-12.42793 19.144953-12.42793 30.00735 0 10.846608 4.149172 21.710204 12.42793 29.970575l192.555174 192.558172C497.568883 1028.140914 524.400597 1028.140914 540.985095 1011.556416L540.985095 1011.556416z" p-id="12598" fill="#32ac8e"></path><path d="M510.982326 256.687276m-42.4118 0a41.446 41.446 0 1 0 84.823601 0 41.446 41.446 0 1 0-84.823601 0Z" p-id="12599" fill="#32ac8e"></path><path d="M510.982326 44.621111m-42.4118 0a41.446 41.446 0 1 0 84.823601 0 41.446 41.446 0 1 0-84.823601 0Z" p-id="12600" fill="#32ac8e"></path></svg>