<?xml version="1.0" standalone="no"?><!DOCTYPE svg PUBLIC "-//W3C//DTD SVG 1.1//EN" "http://www.w3.org/Graphics/SVG/1.1/DTD/svg11.dtd"><svg t="1499936741029" class="icon" style="" viewBox="0 0 1024 1024" version="1.1" xmlns="http://www.w3.org/2000/svg" p-id="10436" xmlns:xlink="http://www.w3.org/1999/xlink" width="64" height="64"><defs><style type="text/css"></style></defs><path d="M507.090689 537.287943c-110.38404 0-199.894679-89.509616-199.894679-199.893656 0-110.429065 89.51064-199.939705 199.894679-199.939705 110.423949 0 199.895703 89.51064 199.895703 199.939705C706.986391 447.778326 617.514637 537.287943 507.090689 537.287943M643.82077 573.816904c81.514525-47.257304 136.355551-135.441739 136.355551-236.422617 0-150.812821-122.272811-273.084609-273.085632-273.084609-150.811798 0-273.084609 122.271788-273.084609 273.084609 0 102.636588 56.622602 192.024431 140.376121 238.661611-137.767713 54.758138-235.186464 189.292204-235.186464 346.565157 0 20.462031 16.61133 37.069267 37.111223 37.069267 20.462031 0 37.07336-16.607236 37.07336-37.069267l0 0c0.204661-164.894538 133.909849-298.477952 298.887274-298.477952 163.073052 0 295.65772 130.641409 298.763454 292.968471-0.246617 1.781576-0.412392 3.64604-0.412392 5.509481 0 20.462031 16.61133 37.069267 37.113269 37.069267 20.461007 0 37.07336-16.607236 37.07336-37.069267C884.803239 763.149017 784.647145 627.046223 643.82077 573.816904" p-id="10437" fill=""></path></svg>