<?xml version="1.0" standalone="no"?><!DOCTYPE svg PUBLIC "-//W3C//DTD SVG 1.1//EN" "http://www.w3.org/Graphics/SVG/1.1/DTD/svg11.dtd"><svg t="1499928147153" class="icon" style="" viewBox="0 0 1024 1024" version="1.1" xmlns="http://www.w3.org/2000/svg" p-id="4811" xmlns:xlink="http://www.w3.org/1999/xlink" width="64" height="64"><defs><style type="text/css"></style></defs><path d="M921.684218 507.140319 533.04992 118.506021c-11.638061-11.638061-30.491455-11.638061-42.129516 0L102.313735 507.140319c-11.639085 11.639085-11.639085 30.492478 0 42.130539 5.819542 5.820566 13.443174 8.729825 21.064758 8.729825 7.624654 0 15.247262-2.910283 21.066805-8.729825L511.984139 181.702342l367.570563 367.568517c5.818519 5.820566 13.443174 8.729825 21.065781 8.729825s15.245216-2.910283 21.063735-8.729825C933.324326 537.632797 933.324326 518.779404 921.684218 507.140319z" p-id="4812" fill=""></path><path d="M771.082198 563.179636c-16.438391 0-29.79356 13.325493-29.79356 29.795607l0 261.659395L282.708292 854.634638l0-261.659395c0-16.470113-13.323447-29.795607-29.79356-29.795607-16.46909 0-29.79356 13.325493-29.79356 29.795607l0 291.452955c0 16.46909 13.32447 29.79356 29.79356 29.79356l518.16849 0c16.438391 0 29.795607-13.32447 29.795607-29.79356L800.878828 592.975243C800.878828 576.50513 787.521612 563.179636 771.082198 563.179636z" p-id="4813" fill=""></path></svg>