<?xml version="1.0" standalone="no"?><!DOCTYPE svg PUBLIC "-//W3C//DTD SVG 1.1//EN" "http://www.w3.org/Graphics/SVG/1.1/DTD/svg11.dtd"><svg t="1499829103203" class="icon" style="" viewBox="0 0 1024 1024" version="1.1" xmlns="http://www.w3.org/2000/svg" p-id="14320" xmlns:xlink="http://www.w3.org/1999/xlink" width="200" height="200"><defs><style type="text/css"></style></defs><path d="M522.67008 112.64c-223.39584 0-404.48 181.0944-404.48 404.48S299.27424 921.6 522.67008 921.6c223.3856 0 404.48-181.0944 404.48-404.48S746.05568 112.64 522.67008 112.64zM522.67008 899.92192c-211.41504 0-382.80192-171.37664-382.80192-382.80192 0-211.41504 171.38688-382.80192 382.80192-382.80192S905.472 305.70496 905.472 517.12C905.472 728.53504 734.08512 899.92192 522.67008 899.92192z" p-id="14321" fill="#33CC99"></path><path d="M522.65984 112.64c-100.37248 0-181.74976 33.61792-181.74976 75.08992s81.37728 75.08992 181.74976 75.08992c100.38272 0 181.76-33.61792 181.76-75.08992S623.04256 112.64 522.65984 112.64zM522.65984 241.73568c-85.87264 0-155.47392-28.75392-155.47392-64.23552 0-35.4816 69.60128-64.23552 155.47392-64.23552s155.50464 28.76416 155.50464 64.23552C678.16448 212.98176 608.53248 241.73568 522.65984 241.73568z" p-id="14322" fill="#33CC99"></path><path d="M523.29472 455.68c-223.00672 0-403.83488 33.61792-403.83488 75.10016 0 41.472 180.81792 75.08992 403.83488 75.08992 223.03744 0 403.85536-33.61792 403.85536-75.08992C927.15008 489.29792 746.33216 455.68 523.29472 455.68zM523.29472 584.77568c-190.79168 0-345.4464-28.76416-345.4464-64.24576 0-35.4816 154.65472-64.23552 345.4464-64.23552 190.80192 0 345.51808 28.76416 345.51808 64.23552C868.8128 556.02176 714.0864 584.77568 523.29472 584.77568z" p-id="14323" fill="#33CC99"></path><path d="M522.65984 771.40992c-100.37248 0-181.74976 33.61792-181.74976 75.08992 0 41.48224 81.37728 75.10016 181.74976 75.10016 100.38272 0 181.76-33.61792 181.76-75.10016C704.41984 805.02784 623.04256 771.40992 522.65984 771.40992zM522.65984 920.97536c-85.87264 0-155.47392-28.75392-155.47392-64.23552 0-35.4816 69.60128-64.23552 155.47392-64.23552s155.50464 28.76416 155.50464 64.23552C678.16448 892.23168 608.53248 920.97536 522.65984 920.97536z" p-id="14324" fill="#33CC99"></path></svg>
