<?xml version="1.0" standalone="no"?><!DOCTYPE svg PUBLIC "-//W3C//DTD SVG 1.1//EN" "http://www.w3.org/Graphics/SVG/1.1/DTD/svg11.dtd"><svg t="1499831563887" class="icon" style="" viewBox="0 0 1024 1024" version="1.1" xmlns="http://www.w3.org/2000/svg" p-id="33420" xmlns:xlink="http://www.w3.org/1999/xlink" width="200" height="200"><defs><style type="text/css"></style></defs><path d="M222.72 934.912h-41.472c-35.328 0-64.512-29.184-64.512-64.512v-312.32c0-35.328 29.184-64.512 64.512-64.512h41.472c35.328 0 64.512 29.184 64.512 64.512v312.32c0 34.816-29.696 64.512-64.512 64.512z m303.616 0h-40.448c-36.352 0-65.536-29.184-65.536-64.512V354.816c0-36.352 29.184-65.536 65.536-65.536h40.448c35.328 0 64.512 29.184 64.512 65.536V870.4c0 34.816-29.184 64.512-64.512 64.512z m315.392 0h-40.448c-36.352 0-65.536-29.184-65.536-64.512V154.624c0-36.352 29.184-65.536 65.536-65.536h40.448c36.352 0 65.536 29.184 65.536 65.536V870.4c0 34.816-29.184 64.512-65.536 64.512z" p-id="33421" fill=""></path></svg>
