<?xml version="1.0" standalone="no"?><!DOCTYPE svg PUBLIC "-//W3C//DTD SVG 1.1//EN" "http://www.w3.org/Graphics/SVG/1.1/DTD/svg11.dtd"><svg t="1499852467970" class="icon" style="" viewBox="0 0 1024 1024" version="1.1" xmlns="http://www.w3.org/2000/svg" p-id="72614" xmlns:xlink="http://www.w3.org/1999/xlink" width="200" height="200"><defs><style type="text/css"></style></defs><path d="M511.237 5.338c-209.879 0-380.019 170.145-380.019 380.020 0 158.887 316.837 633.686 380.019 633.363 62.191 0.325 380.020-476.608 380.020-633.363 0-209.876-170.142-380.020-380.020-380.020zM511.237 923.716c-52.653 0.268-316.681-405.953-316.681-538.358 0-174.897 141.784-316.682 316.681-316.682s316.68 141.784 316.68 316.682c0 130.634-264.853 538.627-316.68 538.358zM511.237 227.016c-87.45 0-158.341 70.892-158.341 158.341 0 87.448 70.892 158.341 158.341 158.341 87.449 0 158.34-70.894 158.34-158.341 0-87.451-70.892-158.341-158.34-158.341zM511.237 480.359c-52.469 0-95.004-42.531-95.004-94.999 0-52.472 42.536-95.002 95.004-95.002s95.002 42.531 95.002 95.002c0 52.47-42.534 94.999-95.002 94.999z" fill="" p-id="72615"></path></svg>