<?xml version="1.0" standalone="no"?><!DOCTYPE svg PUBLIC "-//W3C//DTD SVG 1.1//EN" "http://www.w3.org/Graphics/SVG/1.1/DTD/svg11.dtd"><svg t="1499829077933" class="icon" style="" viewBox="0 0 1024 1024" version="1.1" xmlns="http://www.w3.org/2000/svg" p-id="14056" xmlns:xlink="http://www.w3.org/1999/xlink" width="200" height="200"><defs><style type="text/css"></style></defs><path d="M895.469672 575.705927l-74.894757 0c-19.270902-54.515614-62.47182-97.716532-116.987435-116.987435L703.58748 127.981836c0-35.178197-28.782533-63.960731-63.960731-63.960731l0 0c-35.178197 0-63.960731 28.782533-63.960731 63.960731l0 330.736657c-54.515614 19.270902-97.716532 62.47182-116.987435 116.987435L127.941927 575.705927c-35.178197 0-63.960731 28.782533-63.960731 63.960731l0 0c0 35.178197 28.782533 63.960731 63.960731 63.960731l330.736657 0c19.270902 54.515614 62.47182 97.716532 116.987435 116.987435l0 74.894757c0 35.178197 28.782533 63.960731 63.960731 63.960731l0 0c35.178197 0 63.960731-28.782533 63.960731-63.960731l0-74.894757c54.515614-19.270902 97.716532-62.47182 116.987435-116.987435l74.894757 0c35.178197 0 63.960731-28.782533 63.960731-63.960731l0 0C959.430402 604.488461 930.647869 575.705927 895.469672 575.705927zM639.627772 703.627389c-35.32453 0-63.960731-28.636201-63.960731-63.960731 0-35.32453 28.636201-63.960731 63.960731-63.960731s63.960731 28.636201 63.960731 63.960731C703.58748 674.991188 674.951279 703.627389 639.627772 703.627389z" p-id="14057" fill=""></path></svg>
