<?xml version="1.0" standalone="no"?><!DOCTYPE svg PUBLIC "-//W3C//DTD SVG 1.1//EN" "http://www.w3.org/Graphics/SVG/1.1/DTD/svg11.dtd"><svg t="1501482901509" class="icon" style="" viewBox="0 0 1026 1024" version="1.1" xmlns="http://www.w3.org/2000/svg" p-id="9670" xmlns:xlink="http://www.w3.org/1999/xlink" width="64.125" height="64"><defs><style type="text/css"></style></defs><path d="M854.785598 557.514995c63.926416-82.629108 113.021494-152.765226 113.021494-232.107566 0-128.874836-108.273259-233.275718-241.969915-233.275718s-241.969915 104.473444-241.969915 233.275718c0 71.231708 42.08208 139.24921 97.094567 212.746702l-66.191179 21.187187-128.291271-40.547028c15.853342-26.520009 26.009006-52.236722 26.009006-79.925905 0-73.131615-59.177158-132.382358-132.090064-132.382358-72.985468 0-132.090064 59.250743-132.090064 132.382358 0 30.538533 13.36987 60.127623 32.730734 90.738718l-0.584587 0.072562L-4.0e-06 933.401297l272.654594-102.866852 248.107055 102.866852 232.910862-102.866852 269.148095 102.866852L854.785598 557.514995zM725.90974 212.093641c64.875858 0 117.478458 50.702692 117.478458 113.313787s-52.675162 113.387372-117.478458 113.387372c-64.949443 0-117.478458-50.775255-117.478458-113.387372S660.961319 212.093641 725.90974 212.093641zM280.471907 374.576091c35.360353 0 64.145125 28.784772 64.145125 64.291271 0 35.433937-28.784772 64.291271-64.145125 64.291271-35.432915 0-64.145125-28.858356-64.145125-64.291271C216.326782 403.361885 245.038992 374.576091 280.471907 374.576091zM748.996834 769.384817l-228.381336 98.92089-243.431382-98.92089-181.55102 82.702692 104.035004-268.417361 16.949954-3.214206c20.675162 27.615598 43.250232 56.766248 63.852831 89.131104 25.643129-40.985468 52.6026-75.031522 75.616109-106.299767l158.829804 50.994986 99.432915-32.364856c36.38338 46.684169 75.542525 95.926416 111.487464 150.20817 33.680176-51.725719 68.528504-96.875858 101.186676-138.738207l104.911884 261.987928L748.996834 769.384817z" p-id="9671" fill="#32ac8e"></path><path d="M50.297974 0.153301 50.297974 39.730446 50.297974 0.153301Z" p-id="9672" fill="#32ac8e"></path><path d="M0.356676 59.51953 33.650534 59.51953 0.356676 59.51953Z" p-id="9673" fill="#32ac8e"></path><path d="M0.356676 964.48047 33.650534 964.48047 0.356676 964.48047Z" p-id="9674" fill="#32ac8e"></path><path d="M50.297974 1023.846699 50.297974 984.269554 50.297974 1023.846699Z" p-id="9675" fill="#32ac8e"></path><path d="M975.866624 0.153301 975.866624 39.730446 975.866624 0.153301Z" p-id="9676" fill="#32ac8e"></path><path d="M1025.807923 59.51953 992.514064 59.51953 1025.807923 59.51953Z" p-id="9677" fill="#32ac8e"></path><path d="M1025.807923 964.48047 992.514064 964.48047 1025.807923 964.48047Z" p-id="9678" fill="#32ac8e"></path><path d="M975.866624 1023.846699 975.866624 984.269554 975.866624 1023.846699Z" p-id="9679" fill="#32ac8e"></path></svg>