<?xml version="1.0" standalone="no"?><!DOCTYPE svg PUBLIC "-//W3C//DTD SVG 1.1//EN" "http://www.w3.org/Graphics/SVG/1.1/DTD/svg11.dtd"><svg t="1501482811393" class="icon" style="" viewBox="0 0 1024 1024" version="1.1" xmlns="http://www.w3.org/2000/svg" p-id="5851" xmlns:xlink="http://www.w3.org/1999/xlink" width="64" height="64"><defs><style type="text/css"></style></defs><path d="M627.7 367c0-64.8-51.9-117.4-115.7-117.4S396.3 302.2 396.3 367 448.2 484.4 512 484.4 627.7 431.7 627.7 367zM586.7 367c0 41.9-33.5 76-74.6 76s-74.6-34.1-74.6-76 33.5-76 74.6-76c19.8 0 38.4 7.8 52.5 21.9C578.8 327.3 586.7 346.5 586.7 367z" p-id="5852" fill="#32ac8e"></path><path d="M486.9 809.2c5.9 8.6 15.3 13.7 25.2 13.7 10 0 19.4-5.1 25.2-13.7l11.8-17.3c66.8-98.2 205.8-302.5 205.7-424.9 0-135.9-108.8-246.4-242.6-246.4-133.8 0-242.7 110.6-242.7 246.4 0 122.2 138.5 326 205.1 424L486.9 809.2zM310.3 367c0-112.9 90.5-204.8 201.7-204.8S713.7 254 713.7 367c0 109.5-138.9 313.7-198.2 400.9L512 773l-3.4-5C449.3 680.8 310.3 476.5 310.3 367z" p-id="5853" fill="#32ac8e"></path><path d="M624.1 749.2c0 0-11.9-2.1-11.9 11.4 0 11.8 9.4 13.6 9.4 13.6 41.6 13.4 60.2 31.7 60.2 44 0 19-67.8 47.7-169.9 47.7s-169.9-28.7-169.9-47.7c0-12.3 18.6-30.6 60.2-44 0 0 9.4-1.3 9.4-13.7 0-15.2-11.9-11.3-11.9-11.3-76.1 17.2-114.7 40.4-114.7 69 0 47.8 99.6 85.2 226.8 85.2 127.2 0 226.8-37.4 226.8-85.2C738.8 789.5 700.2 766.3 624.1 749.2z" p-id="5854" fill="#32ac8e"></path></svg>