<?xml version="1.0" standalone="no"?><!DOCTYPE svg PUBLIC "-//W3C//DTD SVG 1.1//EN" "http://www.w3.org/Graphics/SVG/1.1/DTD/svg11.dtd"><svg t="1499826264804" class="icon" style="" viewBox="0 0 1024 1024" version="1.1" xmlns="http://www.w3.org/2000/svg" p-id="28792" xmlns:xlink="http://www.w3.org/1999/xlink" width="64" height="64"><defs><style type="text/css"></style></defs><path d="M660.568 511.325c0-88.552-52.756-139.462-99.349-163.598V179.601c0-17.417-8.7-33.672-23.222-43.313a51.995 51.995 0 0 0-48.929-4.611c-8.21 3.452-8.396 3.536-225.78 187.275h-96.981c-48.168 0-88.89 39.487-88.89 86.199v219.907c0 46.003 40.721 84.862 88.89 84.862h89.686c226.439 182.672 226.643 182.758 236.29 186.092a52.17 52.17 0 0 0 16.943 2.827 52.024 52.024 0 0 0 28.636-8.581 51.97 51.97 0 0 0 23.222-39.604c0.187-2.456 0.203-2.589 0.152-171.196 46.086-26.168 99.332-79.735 99.332-168.133zM129.41 625.06V405.153c0-17.077 17.264-34.207 36.896-34.207h88.755v286.98h-88.755c-19.633 0.003-36.896-16.399-36.896-32.866z m379.814 221.785c-1.133-0.39-190.05-157.42-222.988-184.803V367.631c29.568-24.981 222.006-187.613 222.988-188.029 0 0.517 0.068 666.549 0 667.243z m31.347-215.693V395.793c29.11 15.809 68.003 49.302 68.003 115.532-0.001 66.211-38.894 102.176-68.003 119.827z m183.602 59.491c-5.146 0-12.727-1.522-19.361-8.85-12.155-13.61-12.222-32.513-0.139-48.138 31.077-40.245 46.208-80.782 46.208-123.908 0.134-55.529-32.226-104.984-46.138-123.654-11.544-15.52-11.916-34.441-0.881-47.067 6.94-6.518 13.71-9.817 20.445-9.817 6.264 0 12.728 2.758 20.92 8.97 41.469 47.221 64.587 108.337 64.587 171.587 0 63.045-22.747 123.772-64.077 170.992-3.453 5.044-12.323 9.885-21.564 9.885z m104.324 123.623c-7.038 0-13.979-3.165-20.648-9.411-11.678-13.575-11.813-35.644-0.066-48.913 56.295-63.945 86.014-148.973 85.978-245.888 0.034-96.912-29.719-181.979-86.012-246.004-11.545-13.152-11.509-35.331 0.033-48.442 6.532-6.6 13.61-10.019 20.986-10.019 7.21 0 14.692 3.495 19.988 9.36 67.108 76.434 103.987 181.233 103.903 295.071 0.084 113.888-36.726 218.502-103.648 294.565-3.891 4.467-11.578 9.681-20.514 9.681z" p-id="28793" fill=""></path></svg>