<?xml version="1.0" standalone="no"?><!DOCTYPE svg PUBLIC "-//W3C//DTD SVG 1.1//EN" "http://www.w3.org/Graphics/SVG/1.1/DTD/svg11.dtd"><svg t="1500865686829" class="icon" style="" viewBox="0 0 1024 1024" version="1.1" xmlns="http://www.w3.org/2000/svg" p-id="35103" xmlns:xlink="http://www.w3.org/1999/xlink" width="64" height="64"><defs><style type="text/css"></style></defs><path d="M921.6 1024 102.4 1024C45.8496 1024 0 978.1504 0 921.6L0 102.4C0 45.8496 45.8496 0 102.4 0L921.6 0C978.1504 0 1024 45.8496 1024 102.4L1024 921.6C1024 978.1504 978.1504 1024 921.6 1024ZM339.2 803.3408C396.8 817.6768 449.6 832 507.2 832 540.8 832 579.2 832 612.8 827.2256 641.6 822.4512 670.4 812.8896 699.2 803.3408 704 803.3408 704 798.5664 704 793.792 708.8 755.584 708.8 717.376 708.8 683.9424 708.8 650.5088 699.2 617.0752 680 593.1904 646.4 554.9824 608 535.8848 560 535.8848 531.2 535.8848 502.4 535.8848 473.6 535.8848 440 535.8848 411.2 545.4336 382.4 564.5312 348.8 588.416 329.6 621.8496 324.8 660.0576 320 703.04 324.8 750.8096 320 798.5664 324.8 798.5664 334.4 803.3408 339.2 803.3408ZM128 559.7568C128 597.9648 128 636.1728 128 679.168 128 683.9424 128 683.9424 132.8 688.7168 171.2 698.2656 209.6 707.8144 248 712.6016 262.4 712.6016 281.6 717.376 296 717.376 296 707.8144 296 698.2656 296 688.7168 296 674.3936 296 660.0576 300.8 645.7344 315.2 588.416 348.8 550.208 396.8 526.3232 406.4 521.5488 411.2 521.5488 420.8 516.7744 392 488.1152 377.6 459.4688 377.6 421.248 344 421.248 310.4 421.248 276.8 421.248 257.6 421.248 238.4 426.0352 224 430.8096 171.2 449.9072 128 502.4512 128 559.7568ZM430.4 306.624C430.4 244.544 377.6 196.7744 320 196.7744 257.6 196.7744 204.8 244.544 204.8 306.624 204.8 363.9424 257.6 416.4736 320 416.4736 339.2 416.4736 363.2 411.6992 377.6 402.1504 382.4 363.9424 401.6 330.5088 430.4 311.3984L430.4 306.624ZM401.6 416.4736C406.4 478.5664 454.4 531.1104 516.8 531.1104 579.2 531.1104 632 478.5664 627.2 416.4736 627.2 354.3936 574.4 306.624 516.8 306.624 454.4 306.624 401.6 354.3936 401.6 416.4736ZM814.4 301.8496C814.4 239.7568 761.6 192 704 192 641.6 192 588.8 239.7568 588.8 301.8496 627.2 320.96 651.2 359.168 656 406.9248 670.4 411.6992 684.8 416.4736 704 416.4736 766.4 416.4736 819.2 363.9424 814.4 301.8496ZM881.6 507.2256C852.8 449.9072 809.6 421.248 747.2 421.248 656 421.248 747.2 421.248 656 421.248 656 459.4688 641.6 492.8896 612.8 516.7744 617.6 516.7744 622.4 521.5488 622.4 521.5488 646.4 531.1104 670.4 545.4336 689.6 564.5312 718.4 597.9648 732.8 636.1728 732.8 679.168 732.8 688.7168 732.8 703.04 732.8 712.6016 756.8 707.8144 776 707.8144 800 703.04 828.8 698.2656 862.4 688.7168 891.2 674.3936 896 674.3936 896 669.6064 896 664.832 896 640.96 896 602.752 896 569.3184 896 550.208 891.2 526.3232 881.6 507.2256Z" p-id="35104" fill="#32ac8e"></path></svg>