<?xml version="1.0" standalone="no"?><!DOCTYPE svg PUBLIC "-//W3C//DTD SVG 1.1//EN" "http://www.w3.org/Graphics/SVG/1.1/DTD/svg11.dtd"><svg t="1499999522223" class="icon" style="" viewBox="0 0 1024 1024" version="1.1" xmlns="http://www.w3.org/2000/svg" p-id="3575" xmlns:xlink="http://www.w3.org/1999/xlink" width="200" height="200"><defs><style type="text/css"></style></defs><path d="M563.4 144.5l-130 11.4 27.3 312 130-11.4-27.3-312z m-41 280.4c-16 1.4-30-10.4-31.4-26.4-1.4-16 10.4-30 26.4-31.4 16-1.4 30 10.4 31.4 26.4 1.3 15.9-10.5 30-26.4 31.4z" fill="#33CC99" p-id="3576"></path><path d="M640.2 357.5l8.2 93.9 5.1 57.8-57.8 5.1-130 11.4-57.8 5.1-5.1-57.8-10.1-115.4H146.6l15 522h700.8l15-522H640.2z m-298.3 90.2l-4.5 156.1h-107l-4.5-156.1h116zM236.8 667.1h261c12 0 21.8 9.7 21.8 21.8s-9.7 21.8-21.8 21.8h-261c-12 0-21.8-9.7-21.8-21.8s9.8-21.8 21.8-21.8z m522 134.9h-522c-12 0-21.8-9.7-21.8-21.8s9.7-21.8 21.8-21.8h522c12 0 21.8 9.7 21.8 21.8s-9.8 21.8-21.8 21.8z" fill="#33CC99" p-id="3577"></path></svg>