<?xml version="1.0" standalone="no"?><!DOCTYPE svg PUBLIC "-//W3C//DTD SVG 1.1//EN" "http://www.w3.org/Graphics/SVG/1.1/DTD/svg11.dtd"><svg t="1501576622265" class="icon" style="" viewBox="0 0 1024 1024" version="1.1" xmlns="http://www.w3.org/2000/svg" p-id="4882" xmlns:xlink="http://www.w3.org/1999/xlink" width="64" height="64"><defs><style type="text/css"></style></defs><path d="M901.382335 404.307256 679.95013 404.307256 550.781258 515.022847 550.781258 404.307256l-36.905538 0c-30.574343 0-55.357795-24.785499-55.357795-55.357795L458.517925 127.517255c0-30.574343 24.783453-55.357795 55.357795-55.357795l387.505591 0c30.574343 0 55.357795 24.783453 55.357795 55.357795l0 221.432205C956.74013 379.521756 931.956677 404.307256 901.382335 404.307256zM643.044592 385.854998M624.592334 404.307256M606.139054 422.75849M661.497872 367.399671l221.432205 0c20.38119 0 36.905538-16.522302 36.905538-36.903491L919.835615 145.968489c0-20.38119-16.524348-36.903491-36.905538-36.903491L532.329001 109.064998c-20.383236 0-36.905538 16.522302-36.905538 36.903491l0 184.528714c0 20.38119 16.522302 36.903491 36.905538 36.903491l55.357795 0 0 36.907585 0 18.451234 0 18.454304M809.119001 275.138384c-20.383236 0-36.905538-16.522302-36.905538-36.905538s16.522302-36.907585 36.905538-36.907585 36.905538 16.524348 36.905538 36.907585S829.501214 275.138384 809.119001 275.138384zM698.402387 275.138384c-20.383236 0-36.905538-16.522302-36.905538-36.905538s16.522302-36.907585 36.905538-36.907585c20.38119 0 36.905538 16.524348 36.905538 36.907585S718.783577 275.138384 698.402387 275.138384zM587.686796 275.138384c-20.383236 0-36.905538-16.522302-36.905538-36.905538s16.522302-36.907585 36.905538-36.907585 36.905538 16.524348 36.905538 36.907585S608.070033 275.138384 587.686796 275.138384zM619.120716 730.663138c-16.384156 37.266765-94.02956 107.33561-187.9353 81.147158-93.870947-26.207895-210.959689-134.811382-279.082206-264.758989C83.969437 417.161005 34.736129 263.203564 81.768305 158.236907 128.832204 53.254901 232.274134 62.049195 257.216199 67.37141c25.213241 5.398964 48.185442 16.517185 52.132334 40.370453 2.76088 16.762779 1.548262 185.849802 1.548262 185.849802l-85.190241 46.524616c12.5662 88.932472 63.10627 198.583824 143.511531 253.780961l77.912487-41.033555c0 0 135.468344 65.639976 162.946163 90.179882C633.960703 664.226007 634.333186 695.992501 619.120716 730.663138zM592.338746 667.74311C579.685565 651.372258 447.894983 586.828242 447.894983 586.828242l-81.418334 42.272779c-93.850481-62.961984-163.761738-183.302793-171.356716-307.825854l78.872349-46.136783c-0.029676-0.00921 7.176446-129.491213 0-147.621129-7.139607-18.150382-19.576871-29.945009-40.911782-31.140231-18.956747-1.090844-91.423199 6.275937-121.68441 73.501014C77.775364 244.63465 97.54564 393.372206 173.923168 524.916171c76.403111 131.554198 161.563676 220.079394 247.874437 252.753561 86.312808 32.66905 152.36927-30.662347 165.577083-51.626821C600.544639 705.096856 602.281189 680.600953 592.338746 667.74311z" p-id="4883" fill="#32ac8e"></path></svg>