<?xml version="1.0" standalone="no"?><!DOCTYPE svg PUBLIC "-//W3C//DTD SVG 1.1//EN" "http://www.w3.org/Graphics/SVG/1.1/DTD/svg11.dtd"><svg t="1499829053859" class="icon" style="" viewBox="0 0 1026 1024" version="1.1" xmlns="http://www.w3.org/2000/svg" p-id="13601" xmlns:xlink="http://www.w3.org/1999/xlink" width="200.390625" height="200"><defs><style type="text/css"></style></defs><path d="M914.107317 87.414634H109.892683C49.95122 87.414634 0 137.365854 0 197.307317v654.360976c0 59.941463 49.95122 109.892683 109.892683 109.892683h806.712195c59.941463 0 109.892683-49.95122 109.892683-109.892683V197.307317C1024 137.365854 974.04878 87.414634 914.107317 87.414634z m67.434146 764.253659c0 34.965854-29.970732 64.936585-64.936585 64.936585H109.892683c-34.965854 0-64.936585-29.970732-64.936585-64.936585V197.307317c0-34.965854 29.970732-64.936585 64.936585-64.936585h806.712195c34.965854 0 64.936585 29.970732 64.936585 64.936585v654.360976zM799.219512 239.765854h-72.429268c-52.44878 0-94.907317 42.458537-94.907317 94.907317v72.429268c0 52.44878 42.458537 94.907317 94.907317 94.907317H799.219512c52.44878 0 94.907317-42.458537 94.907317-94.907317v-72.429268c0-52.44878-42.458537-94.907317-94.907317-94.907317z m49.95122 167.336585c0 27.473171-22.478049 49.95122-49.95122 49.95122h-72.429268c-27.473171 0-49.95122-22.478049-49.95122-49.95122v-72.429268c0-27.473171 22.478049-49.95122 49.95122-49.95122H799.219512c27.473171 0 49.95122 22.478049 49.95122 49.95122v72.429268z m-282.224391 227.278049H152.35122c-12.487805 0-22.478049 9.990244-22.478049 22.478049s9.990244 22.478049 22.478049 22.478048h414.595121c12.487805 0 22.478049-9.990244 22.478049-22.478048s-9.990244-22.478049-22.478049-22.478049z m0 109.892683H152.35122c-12.487805 0-22.478049 9.990244-22.478049 22.478049s9.990244 22.478049 22.478049 22.478048h414.595121c12.487805 0 22.478049-9.990244 22.478049-22.478048 0-14.985366-9.990244-22.478049-22.478049-22.478049z" fill="" p-id="13602"></path></svg>
