<?xml version="1.0" standalone="no"?><!DOCTYPE svg PUBLIC "-//W3C//DTD SVG 1.1//EN" "http://www.w3.org/Graphics/SVG/1.1/DTD/svg11.dtd"><svg t="1500885964498" class="icon" style="" viewBox="0 0 1024 1024" version="1.1" xmlns="http://www.w3.org/2000/svg" p-id="4663" xmlns:xlink="http://www.w3.org/1999/xlink" width="200" height="200"><defs><style type="text/css"></style></defs><path d="M722.1248 570.5728" p-id="4664" fill="#33CC99"></path><path d="M513.536 606.4128c-25.4976 0-44.7488-20.6848-44.7488-46.2848l-1.2288-281.8048c0-25.4976 20.6848-46.1824 46.2848-46.1824s46.2848 20.6848 46.2848 46.1824L559.8208 560.128C559.8208 585.728 539.0336 606.4128 513.536 606.4128zM563.2 746.3936c0 27.4432-22.2208 49.664-49.664 49.664-27.4432 0-49.664-22.2208-49.664-49.664l0.2048-1.536c0-27.4432 22.2208-49.664 49.664-49.664 27.4432 0 49.664 22.2208 49.664 49.664L563.2 746.3936zM514.2528 1022.976c-108.6464 0-208.7936-34.6112-291.4304-92.672-18.944-10.4448-33.9968-23.1424-33.9968-44.4416l-0.4096-4.3008c0-25.4976 20.6848-46.2848 46.2848-46.2848 13.4144 0 21.6064 5.4272 33.792 14.9504 68.8128 50.176 153.2928 80.1792 245.0432 80.1792 230.2976 0 416.9728-186.6752 416.9728-416.9728 0-230.2976-186.6752-416.9728-416.9728-416.9728-230.2976 0-416.9728 186.6752-416.9728 416.9728 0 63.5904 14.6432 123.5968 40.1408 177.5616 0 0 21.2992 30.9248 21.2992 50.2784l0.4096 4.3008c0 25.4976-20.6848 46.2848-46.2848 46.2848-21.0944 0-35.328-16.6912-44.2368-33.5872-39.7312-72.4992-62.5664-155.648-62.5664-244.224C5.4272 233.2672 233.2672 5.4272 514.2528 5.4272 795.2384 5.4272 1022.976 233.2672 1022.976 514.2528S795.2384 1022.976 514.2528 1022.976z" p-id="4665" fill="#33CC99"></path></svg>