<?xml version="1.0" standalone="no"?><!DOCTYPE svg PUBLIC "-//W3C//DTD SVG 1.1//EN" "http://www.w3.org/Graphics/SVG/1.1/DTD/svg11.dtd"><svg t="1501057453540" class="icon" style="" viewBox="0 0 1024 1024" version="1.1" xmlns="http://www.w3.org/2000/svg" p-id="7615" xmlns:xlink="http://www.w3.org/1999/xlink" width="64" height="64"><defs><style type="text/css"></style></defs><path d="M416 511.616c-17.664 0-32 14.272-32 32v448c0 17.6 14.336 32 32 32s32-14.336 32-32v-448c0-17.728-14.336-32-32-32z m-256 192c-17.664 0-32 14.272-32 32v256c0 17.6 14.336 32 32 32s32-14.336 32-32v-256c0-17.728-14.336-32-32-32z m512-64c-17.664 0-32 14.272-32 32v320c0 17.6 14.336 32 32 32s32-14.4 32-32v-320c0-17.728-14.336-32-32-32z m256-128c-17.664 0-32 14.272-32 32v448c0 17.6 14.336 32 32 32s32-14.4 32-32v-448c0-17.728-14.336-32-32-32z m74.496-445.888c-6.528-3.136-13.632-3.52-20.48-2.112H800c-17.664 0-32 14.272-32 32 0 17.6 14.336 32 32 32h109.632L605.248 433.472 372.672 201.024c-0.256-0.384-0.32-0.768-0.64-1.024s-0.64-0.384-0.96-0.64l-0.448-0.512c-9.088-9.152-22.4-11.264-33.536-6.528-4.48 1.664-8.768 4.032-12.352 7.68L9.728 516.736c-13.056 13.248-13.056 34.496 0 47.616 13.12 13.12 34.304 13.12 47.36 0l295.36-297.024L587.456 502.4a30.593 30.593 0 0 0 43.392 0c0.192-0.128 0.192-0.384 0.384-0.512 0.64-0.64 1.408-0.768 2.048-1.344L960 172.224v115.392c0 17.6 14.336 32 32 32s32-14.336 32-32v-192c0-14.016-9.024-25.472-21.504-29.888z" fill="" p-id="7616" class="selected"></path></svg>