<?xml version="1.0" standalone="no"?><!DOCTYPE svg PUBLIC "-//W3C//DTD SVG 1.1//EN" "http://www.w3.org/Graphics/SVG/1.1/DTD/svg11.dtd"><svg t="1500000392632" class="icon" style="" viewBox="0 0 1024 1024" version="1.1" xmlns="http://www.w3.org/2000/svg" p-id="6704" xmlns:xlink="http://www.w3.org/1999/xlink" width="200" height="200"><defs><style type="text/css"></style></defs><path d="M878.8 145c-38.8 0-70.3 31.5-70.3 70.3 0 13 3.5 25.1 9.6 35.5L618.6 531.5c-4.4-0.9-9-1.3-13.6-1.3-14.1 0-27.3 4.2-38.3 11.4l-139.5-89.7c0-0.6 0-1.2 0-1.8 0-38.8-31.5-70.3-70.3-70.3s-70.3 31.5-70.3 70.3c0 11 2.5 21.4 7 30.7L155 691.6c-3.6-0.6-7.4-0.9-11.2-0.9-38.8 0-70.3 31.5-70.3 70.3s31.5 70.3 70.3 70.3 70.3-31.5 70.3-70.3c0-13.9-4-26.8-11-37.7l135.2-205.5c5.9 1.6 12.2 2.5 18.6 2.5 17.1 0 32.7-6.1 44.9-16.2L535.5 590c-0.5 3.4-0.8 6.9-0.8 10.4 0 38.8 31.5 70.3 70.3 70.3s70.3-31.5 70.3-70.3c0-13-3.5-25.1-9.6-35.5l199.6-280.7c4.4 0.9 9 1.3 13.6 1.3 38.8 0 70.3-31.5 70.3-70.3S917.6 145 878.8 145z" p-id="6705" fill="#33CC99"></path></svg>