<?xml version="1.0" standalone="no"?><!DOCTYPE svg PUBLIC "-//W3C//DTD SVG 1.1//EN" "http://www.w3.org/Graphics/SVG/1.1/DTD/svg11.dtd"><svg t="1500089759498" class="icon" style="" viewBox="0 0 1024 1024" version="1.1" xmlns="http://www.w3.org/2000/svg" p-id="5903" xmlns:xlink="http://www.w3.org/1999/xlink" width="200" height="200"><defs><style type="text/css"></style></defs><path d="M675.328 117.717A425.43 425.43 0 0 0 512 85.333C276.352 85.333 85.333 276.352 85.333 512S276.352 938.667 512 938.667 938.667 747.648 938.667 512c0-56.747-11.094-112-32.384-163.328a21.333 21.333 0 0 0-39.403 16.341A382.763 382.763 0 0 1 896 512c0 212.075-171.925 384-384 384S128 724.075 128 512s171.925-384 384-384c51.115 0 100.8 9.984 146.987 29.12a21.333 21.333 0 0 0 16.341-39.403z m-141.995 244.95a21.333 21.333 0 0 0-42.666 0v170.666a21.333 21.333 0 0 0 6.25 15.083l128 128a21.333 21.333 0 0 0 30.166-30.165L533.333 524.5V362.667z" p-id="5904" fill=""></path></svg>