<?xml version="1.0" standalone="no"?><!DOCTYPE svg PUBLIC "-//W3C//DTD SVG 1.1//EN" "http://www.w3.org/Graphics/SVG/1.1/DTD/svg11.dtd"><svg t="1500000824035" class="icon" style="" viewBox="0 0 1024 1024" version="1.1" xmlns="http://www.w3.org/2000/svg" p-id="7420" xmlns:xlink="http://www.w3.org/1999/xlink" width="200" height="200"><defs><style type="text/css"></style></defs><path d="M912.717 354.707c-21.904-51.792-53.26-98.3-93.191-138.231-39.933-39.932-86.441-71.288-138.232-93.194C627.659 100.596 570.701 89.094 512 89.094s-115.659 11.502-169.293 34.188c-51.791 21.906-98.299 53.26-138.231 93.194-39.932 39.932-71.288 86.441-93.194 138.231C88.597 408.341 77.094 465.299 77.094 524s11.502 115.659 34.188 169.293c21.906 51.792 53.261 98.3 93.194 138.232 39.933 39.932 86.441 71.287 138.231 93.191 53.634 22.687 110.592 34.188 169.293 34.188 58.7 0 115.658-11.502 169.293-34.188 51.792-21.905 98.3-53.26 138.232-93.191 39.932-39.933 71.287-86.441 93.191-138.232 22.687-53.634 34.188-110.592 34.188-169.293S935.403 408.341 912.717 354.707zM798.526 549.583 512 549.583c-14.129 0-25.583-11.454-25.583-25.583 0-2.117 0.262-4.172 0.747-6.14-0.485-1.969-0.747-4.023-0.747-6.141L486.417 237.474c0-14.129 11.454-25.583 25.583-25.583s25.583 11.454 25.583 25.583l0 260.943 260.943 0c14.129 0 25.583 11.453 25.583 25.583S812.655 549.583 798.526 549.583z" p-id="7421" fill=""></path></svg>