<?xml version="1.0" standalone="no"?><!DOCTYPE svg PUBLIC "-//W3C//DTD SVG 1.1//EN" "http://www.w3.org/Graphics/SVG/1.1/DTD/svg11.dtd"><svg t="1501057649782" class="icon" style="" viewBox="0 0 1024 1024" version="1.1" xmlns="http://www.w3.org/2000/svg" p-id="5169" xmlns:xlink="http://www.w3.org/1999/xlink" width="64" height="64"><defs><style type="text/css"></style></defs><path d="M1022.09024 631.4496a44.288 44.288 0 0 1-44.288 44.288h-208.04608c-18.80576 0-35.56864-10.51136-41.78944-28.25216l-33.19808-93.2864-108.11392 366.54592a44.22656 44.22656 0 0 1-42.46016 31.72352c-0.44544 0-0.88064-0.08704-1.3312-0.10752-20.11136-0.60928-37.28896-14.85824-41.8304-34.46784L358.03136 299.30496l-86.58432 344.30976c-4.95104 19.69664-22.65088 32.12288-42.9568 32.12288H47.79008a44.29312 44.29312 0 0 1-44.288-44.288 44.288 44.288 0 0 1 44.288-44.28288H193.9456l122.88-488.28416c4.98688-19.84 23.15776-32.3584 43.3664-32.14336a44.26752 44.26752 0 0 1 42.74176 34.26304l146.42688 632.97024 99.29216-336.82944c5.43232-18.43712 22.144-31.60576 41.35424-32.09216 19.10272-0.55296 36.55168 10.7776 42.91072 28.92288l68.23424 193.19296h176.64512a44.288 44.288 0 0 1 44.29312 44.28288z" p-id="5170"></path></svg>