<?xml version="1.0" standalone="no"?><!DOCTYPE svg PUBLIC "-//W3C//DTD SVG 1.1//EN" "http://www.w3.org/Graphics/SVG/1.1/DTD/svg11.dtd"><svg t="1500604539392" class="icon" style="" viewBox="0 0 1024 1024" version="1.1" xmlns="http://www.w3.org/2000/svg" p-id="10992" xmlns:xlink="http://www.w3.org/1999/xlink" width="64" height="64"><defs><style type="text/css"></style></defs><path d="M717.417594 339.330099 512.891088 266.378892c-0.564862-0.203779-1.127936-0.441522-1.651685-0.72574-0.529111 0.275281-1.560521 0.527324-2.12002 0.72574l-204.390654 72.960145c-4.286516 2.472165-6.819457 6.858783-6.819457 9.843971l0 148.549759c0 27.217051 5.521704 56.128689 15.562305 81.391961 26.09269 68.382261 83.626384 105.740014 139.256349 141.87688l7.259191 4.720887c15.338862 8.13151 31.753823 18.615419 47.564595 30.372056 2.030643 1.072523 4.47957 2.307711 5.484166 2.404238 0.298519-0.044688 0.888406-0.311032 1.152962-0.518386 0.654239-0.698927 1.265577-1.1762 2.059244-1.707099 8.776811-5.791623 16.938709-10.934369 25.138145-16.109291 7.19484-4.534984 14.412918-9.078905 22.097543-14.112611l7.788302-5.06052c55.628178-36.131503 113.156509-73.492832 139.18306-141.705276 10.544686-26.298257 15.626656-52.909333 15.626656-81.55284l0-148.669524C726.083578 346.131681 723.37367 341.839802 717.417594 339.330099zM512.074183 706.24012c-11.084522-7.865167-22.176195-13.824818-33.255354-21.698922-51.71347-31.560768-99.792876-63.191251-121.961921-120.424638-7.368231-19.791619-11.080947-41.503054-11.080947-65.170055l0-122.424893 166.298222-59.137115L512.074183 706.24012z" p-id="10993" fill=""></path><path d="M873.95586 96.418005 150.04414 96.418005c-29.615927 0-53.626136 24.010209-53.626136 53.626136l0 723.913507c0 29.615927 24.010209 53.626136 53.626136 53.626136l723.911719 0c29.615927 0 53.626136-24.010209 53.626136-53.626136L927.581995 150.04414C927.581995 120.428213 903.571787 96.418005 873.95586 96.418005zM751.604256 497.730979c0 31.952239-5.68437 61.671844-17.382018 90.851612-28.917 75.78088-89.986443 115.444558-149.052057 153.806908l-7.731101 5.028344c-7.807965 5.101633-15.136871 9.722418-22.449688 14.328903-7.754339 4.892491-15.481865 9.761744-23.742078 15.199434-4.011235 3.610826-10.542898 7.06435-18.20071 7.06435-7.269916 0-13.311794-3.18718-18.168535-5.743359-0.584525-0.314607-1.263789-0.732891-1.805413-1.131511-15.176196-11.35444-30.91368-21.423641-45.508926-29.124354-0.344995-0.180541-0.686415-0.37717-1.013534-0.593463l-7.718588-5.019406c-59.060251-38.360562-120.140419-78.02424-149.146796-154.014262-11.129211-28.037531-17.289066-60.284714-17.289066-90.651407l0-148.549759c0-13.127678 8.560519-26.33937 21.307451-32.879971 0.491573-0.257405 1.008171-0.475485 1.53907-0.664964l204.589071-73.035222c7.269916-3.492849 15.120783-3.474974 22.365674 0.003575l204.467518 72.94942c15.405001 6.479825 24.937941 19.525276 24.937941 33.503822L751.602468 497.730979z" p-id="10994" fill=""></path></svg>