<?xml version="1.0" standalone="no"?><!DOCTYPE svg PUBLIC "-//W3C//DTD SVG 1.1//EN" "http://www.w3.org/Graphics/SVG/1.1/DTD/svg11.dtd"><svg t="1499829236595" class="icon" style="" viewBox="0 0 1024 1024" version="1.1" xmlns="http://www.w3.org/2000/svg" p-id="15809" xmlns:xlink="http://www.w3.org/1999/xlink" width="200" height="200"><defs><style type="text/css"></style></defs><path d="M513.869 459.861c25.43-1.666 44.46-20.593 42.507-42.301L523.929 54.418c-0.492-5.627-5.75-10.252-12.542-10.697-7.485-0.483-14.034 4.302-14.587 10.697L464.335 417.56a35.186 35.186 0 0 0 0 5.997c1.933 21.708 24.11 37.967 49.534 36.304z m-20.486 18.31c-8.207-20.608-34.418-31.638-58.57-24.63-2.158 0.623-4.466 1.49-6.46 2.356L49.983 624.08c-6.648 2.973-9.25 9.98-5.773 15.669 3.141 5.173 10.182 7.467 16.45 5.641l403.872-117.227c24.141-7 37.062-29.386 28.85-49.994z m480.613 145.91l-378.37-168.184c-1.98-0.866-4.279-1.733-6.46-2.355-24.138-7.009-50.368 4.021-58.56 24.628-8.212 20.608 4.713 42.995 28.841 49.993l403.884 117.228c6.245 1.826 13.324-0.469 16.47-5.642 3.455-5.687 0.875-12.696-5.805-15.668zM521.66 526.248c-0.324-4.284-4.911-7.822-10.744-8.033-6.226-0.24-11.52 3.375-11.853 8.033l-28.028 423.046a28.15 28.15 0 0 0 0 2.94c1.072 16.31 19.564 28.856 41.276 28.041 21.73-0.805 38.448-14.676 37.367-30.982L521.66 526.248z" p-id="15810" fill=""></path></svg>
